<svg width="1015" height="721" viewBox="0 0 1015 721" fill="none" xmlns="http://www.w3.org/2000/svg">
<path d="M351.236 333.352L380.297 346.089C383.274 347.363 386.471 348.072 389.668 348.072C392.53 348.072 395.392 347.538 398.094 346.454L407.215 342.828C413.744 340.26 418.659 334.956 420.627 328.322L427.21 306.679C428.499 301.794 431.716 297.763 436.296 295.57L452.105 287.718V323.367C452.105 336.189 444.663 347.938 433.074 353.667L392.19 373.977C372.78 383.602 360.532 403.132 360.532 424.641V434.901H589.393L589.363 299.036C589.363 224.666 527.96 163.172 452.15 163.172H346.226C341.486 163.172 337.64 166.978 337.64 171.664C337.64 173.522 338.084 175.38 338.893 177.058L349.088 197.138L342.65 203.507C339.428 206.689 337.64 211.019 337.64 215.535V312.623C337.64 321.609 343.004 329.746 351.231 333.357L351.236 333.352ZM374.843 231.099C382.715 231.099 389.153 237.468 389.153 245.25C389.153 253.032 382.715 259.401 374.843 259.401C366.97 259.401 360.532 253.032 360.532 245.25C360.532 237.468 366.97 231.099 374.843 231.099ZM578.02 457.538H371.336C353.014 457.538 337.64 472.753 337.64 490.87C337.64 497.733 342.765 502.828 349.088 502.828H600.912C607.235 502.828 612.36 497.758 612.36 491.504C612.36 472.753 596.981 457.538 578.02 457.538Z" fill="white"/>
<path d="M29.4375 656.312L32.6562 659.375L29.5312 662.688V662.75L33 666.062L29.4375 669.812C29.3333 676.208 29.0833 681.698 28.6875 686.281C28.2708 681.552 28.0104 675.812 27.9062 669.062L24.75 666.062L27.8438 662.812V662.656L24.4062 659.375L27.9375 655.656C28.0417 650.031 28.2917 644.896 28.6875 640.25C29.0833 644.708 29.3333 650.062 29.4375 656.312ZM42.75 709.312C45.1042 709.75 47.6354 710.01 50.3438 710.094C53.0521 710.198 55.8229 710.042 58.6562 709.625C61.4896 709.229 63.8542 708.562 65.75 707.625C65.4375 707.938 64.8333 708.385 63.9375 708.969C60.4792 711.302 56.0417 712.885 50.625 713.719C49.8542 713.844 48.6979 713.969 47.1562 714.094C50.2396 716.531 53.5938 717.812 57.2188 717.938C53.3438 718.062 49.6562 716.802 46.1562 714.156C41.4271 714.427 36.8125 714.01 32.3125 712.906C27.8125 711.823 23.7396 710.021 20.0938 707.5C14.0312 703.292 9.28125 697.875 5.84375 691.25C2.40625 684.646 0.645833 677.719 0.5625 670.469C0.6875 664.844 1.60417 659.198 3.3125 653.531C5.02083 647.844 7.47917 642.448 10.6875 637.344C13.8958 632.219 17.6458 627.833 21.9375 624.188C25.0833 621.542 28.5833 619.26 32.4375 617.344C31.6667 616.344 31.1146 615.688 30.7812 615.375C31.1562 615.688 31.75 616.323 32.5625 617.281C36.2292 615.469 39.9271 614.198 43.6562 613.469C47.3854 612.719 50.9583 612.531 54.375 612.906C57.8125 613.26 60.9479 614.385 63.7812 616.281C66.6146 618.177 68.8438 620.771 70.4688 624.062C72.5312 628.271 72.3229 633.25 69.8438 639C67.3646 644.75 62.6667 651.719 55.75 659.906C57.1042 656.135 58.0729 652.354 58.6562 648.562C59.2396 644.771 59.4375 641.375 59.25 638.375C59.0833 635.375 58.6667 632.719 58 630.406C57.3542 628.094 56.5 626.302 55.4375 625.031C55.1667 624.698 54.9271 624.417 54.7188 624.188C54.5104 623.958 54.2188 623.656 53.8438 623.281C53.4896 622.906 53.1458 622.583 52.8125 622.312C52.4792 622.042 52.0729 621.74 51.5938 621.406C51.1146 621.052 50.625 620.76 50.125 620.531C49.625 620.281 49.0625 620.031 48.4375 619.781C47.8333 619.51 47.1771 619.302 46.4688 619.156C45.7604 619.01 45.0104 618.896 44.2188 618.812C43.4271 618.708 42.5625 618.667 41.625 618.688C40.6875 618.688 39.7188 618.75 38.7188 618.875C37.3646 619.021 35.9375 619.365 34.4375 619.906C35.5 621.698 36.2917 623.542 36.8125 625.438C37.8958 624.771 38.7396 624.312 39.3438 624.062C40.3854 623.625 41.6146 623.281 43.0312 623.031C46.3021 622.531 48.75 622.875 50.375 624.062C48.75 622.979 46.3229 622.75 43.0938 623.375C41.0729 623.75 39.0312 624.667 36.9688 626.125C37.0104 626.292 37.0833 626.573 37.1875 626.969C37.2917 627.365 37.3646 627.677 37.4062 627.906C37.5104 628.635 37.5833 629.375 37.625 630.125C37.6875 630.854 37.7188 631.802 37.7188 632.969C37.7396 634.135 37.75 634.854 37.75 635.125L37.875 642.312L38.0625 671L37.9688 685.344C37.9688 686.073 37.9583 687.24 37.9375 688.844C37.9167 690.448 37.9062 691.698 37.9062 692.594C37.9271 693.51 37.9896 694.615 38.0938 695.906C38.2188 697.219 38.3958 698.406 38.625 699.469C38.7917 700.281 39.0312 701.188 39.3438 702.188C44.1354 704.25 48.9062 704.792 53.6562 703.812C49.1562 705.021 44.4896 704.802 39.6562 703.156C40.4062 705.365 41.4375 707.417 42.75 709.312ZM36.5625 628.031C36.5417 627.885 36.5 627.646 36.4375 627.312C36.375 626.979 36.3333 626.74 36.3125 626.594C32.4583 629.385 29.0729 632.958 26.1562 637.312C23.4062 641.479 21.3333 645.979 19.9375 650.812C18.5417 655.646 17.9167 660.531 18.0625 665.469C18.1458 670.615 18.9583 675.583 20.5 680.375C22.0417 685.146 24.3229 689.396 27.3438 693.125C30.1979 696.708 33.7083 699.5 37.875 701.5C37.5625 700.583 37.3854 700.01 37.3438 699.781C36.9688 698.323 36.7083 696.708 36.5625 694.938C36.4375 693.167 36.3958 691.562 36.4375 690.125C36.5 688.667 36.5 687.073 36.4375 685.344L36.3438 671L36.5312 642.312L36.6562 635.125C36.6562 634.688 36.6667 633.948 36.6875 632.906C36.7083 631.844 36.7083 630.938 36.6875 630.188C36.6875 629.438 36.6458 628.719 36.5625 628.031ZM41.4062 709.062H41.4375C40.0625 707.062 38.9896 704.927 38.2188 702.656C33.5729 700.76 29.6042 697.875 26.3125 694C23.0833 690.208 20.6458 685.854 19 680.938C17.3542 676 16.4688 670.854 16.3438 665.5C16.2812 660.312 16.9896 655.229 18.4688 650.25C19.9688 645.271 22.1875 640.719 25.125 636.594C28.5 631.969 32.125 628.417 36 625.938L36.1875 625.844C35.7708 623.823 35.0833 621.885 34.125 620.031C30.6042 621.365 27.3542 623.531 24.375 626.531C22.0417 628.906 20.0208 631.625 18.3125 634.688C16.6042 637.75 15.2708 640.969 14.3125 644.344C13.375 647.698 12.6771 651.031 12.2188 654.344C11.7812 657.635 11.5417 661.052 11.5 664.594C11.4583 674.906 13.125 683.365 16.5 689.969C19.0417 694.948 22.4479 699.052 26.7188 702.281C30.9896 705.51 35.8854 707.771 41.4062 709.062ZM90.25 638.062C93.7083 636.604 97.3333 635.875 101.125 635.875C104.917 635.875 108.531 636.604 111.969 638.062C115.427 639.521 118.406 641.49 120.906 643.969C123.406 646.427 125.396 649.365 126.875 652.781C128.354 656.177 129.094 659.74 129.094 663.469C129.094 667.198 128.354 670.771 126.875 674.188C125.396 677.604 123.406 680.552 120.906 683.031C118.406 685.49 115.427 687.448 111.969 688.906C108.531 690.365 104.917 691.094 101.125 691.094C98.0833 691.094 95.1354 690.635 92.2812 689.719C89.4479 688.781 86.8854 687.458 84.5938 685.75C82.3021 684.042 80.2917 682.052 78.5625 679.781C76.8333 677.51 75.4896 674.979 74.5312 672.188C73.5938 669.375 73.125 666.469 73.125 663.469C73.125 659.74 73.8646 656.177 75.3438 652.781C76.8229 649.365 78.8125 646.427 81.3125 643.969C83.8125 641.49 86.7917 639.521 90.25 638.062ZM92.25 684.344C94.9792 686.49 97.9375 687.562 101.125 687.562C104.312 687.562 107.26 686.49 109.969 684.344C112.698 682.177 114.854 679.24 116.438 675.531C118.021 671.823 118.812 667.781 118.812 663.406C118.812 659.031 118.021 654.99 116.438 651.281C114.854 647.573 112.698 644.646 109.969 642.5C107.26 640.333 104.312 639.25 101.125 639.25C97.9375 639.25 94.9792 640.333 92.25 642.5C89.5417 644.646 87.3958 647.573 85.8125 651.281C84.2292 654.99 83.4375 659.031 83.4375 663.406C83.4375 667.781 84.2292 671.823 85.8125 675.531C87.3958 679.24 89.5417 682.177 92.25 684.344ZM185.375 635.875C182.75 636.917 180.635 638.604 179.031 640.938C177.448 643.25 176.656 645.823 176.656 648.656V678.188C176.656 681.021 177.448 683.604 179.031 685.938C180.635 688.271 182.75 689.958 185.375 691H166.531L142.594 639.281H142.469V678.188C142.469 681.021 143.26 683.604 144.844 685.938C146.448 688.271 148.562 689.958 151.188 691H130.312C132.938 689.958 135.042 688.271 136.625 685.938C138.229 683.604 139.031 681.021 139.031 678.188V648.656C139.031 645.823 138.229 643.25 136.625 640.938C135.042 638.604 132.938 636.917 130.312 635.875L151.062 635.812V635.875L173.219 684.219V648.656C173.219 645.823 172.417 643.25 170.812 640.938C169.229 638.604 167.125 636.917 164.5 635.875H185.375ZM186.625 656.219V635.812H233.219V656.219L231.656 648.562C231.073 645.708 229.979 643.448 228.375 641.781C226.771 640.094 224.646 639.25 222 639.25H215.938V681.25C215.938 683.229 216.406 685.083 217.344 686.812C218.281 688.542 219.573 689.938 221.219 691H200.344C201.99 689.938 203.281 688.542 204.219 686.812C205.156 685.062 205.625 683.208 205.625 681.25V639.25H197.906C195.26 639.25 193.125 640.094 191.5 641.781C189.875 643.448 188.771 645.708 188.188 648.562L186.625 656.219ZM285.469 687.281C285.99 687.177 286.146 687.344 285.938 687.781C285.833 688.031 285.677 688.271 285.469 688.5C284.615 689.479 283.583 690.208 282.375 690.688C280.479 691.396 278.927 691.792 277.719 691.875C275.427 692.042 273.583 691.333 272.188 689.75C270.812 688.167 269.906 686.146 269.469 683.688C269.219 682.312 269.052 680.24 268.969 677.469C268.906 674.698 268.75 672.625 268.5 671.25C268.146 669.354 267.469 667.625 266.469 666.062C266.073 665.458 265.646 664.969 265.188 664.594H250.094V681.281C250.094 683.26 250.562 685.115 251.5 686.844C252.438 688.552 253.729 689.938 255.375 691H234.5C236.146 689.938 237.438 688.542 238.375 686.812C239.333 685.083 239.812 683.24 239.812 681.281V645.562C239.812 643.583 239.333 641.729 238.375 640C237.438 638.271 236.146 636.875 234.5 635.812H266.719C270.677 635.812 274.062 637.219 276.875 640.031C279.688 642.844 281.094 646.24 281.094 650.219C281.094 652.823 280.438 655.219 279.125 657.406C277.833 659.573 276.094 661.292 273.906 662.562C274.656 663.146 275.24 663.875 275.656 664.75C276.198 665.896 276.552 667.802 276.719 670.469C276.76 671.198 276.812 672.312 276.875 673.812C276.938 675.292 276.99 676.406 277.031 677.156C277.26 681.156 277.948 683.948 279.094 685.531C279.531 686.135 279.979 686.604 280.438 686.938C280.917 687.25 281.448 687.448 282.031 687.531C282.615 687.594 283.146 687.604 283.625 687.562C284.104 687.521 284.719 687.427 285.469 687.281ZM250.094 661.156H259.844C262.969 661.156 265.615 660.021 267.781 657.75C269.948 655.479 270.948 652.771 270.781 649.625C270.677 647.688 270.073 645.927 268.969 644.344C267.885 642.74 266.479 641.49 264.75 640.594C263.021 639.698 261.177 639.25 259.219 639.25H250.094V661.156ZM304.438 638.062C307.896 636.604 311.521 635.875 315.312 635.875C319.104 635.875 322.719 636.604 326.156 638.062C329.615 639.521 332.594 641.49 335.094 643.969C337.594 646.427 339.583 649.365 341.062 652.781C342.542 656.177 343.281 659.74 343.281 663.469C343.281 667.198 342.542 670.771 341.062 674.188C339.583 677.604 337.594 680.552 335.094 683.031C332.594 685.49 329.615 687.448 326.156 688.906C322.719 690.365 319.104 691.094 315.312 691.094C312.271 691.094 309.323 690.635 306.469 689.719C303.635 688.781 301.073 687.458 298.781 685.75C296.49 684.042 294.479 682.052 292.75 679.781C291.021 677.51 289.677 674.979 288.719 672.188C287.781 669.375 287.312 666.469 287.312 663.469C287.312 659.74 288.052 656.177 289.531 652.781C291.01 649.365 293 646.427 295.5 643.969C298 641.49 300.979 639.521 304.438 638.062ZM306.438 684.344C309.167 686.49 312.125 687.562 315.312 687.562C318.5 687.562 321.448 686.49 324.156 684.344C326.885 682.177 329.042 679.24 330.625 675.531C332.208 671.823 333 667.781 333 663.406C333 659.031 332.208 654.99 330.625 651.281C329.042 647.573 326.885 644.646 324.156 642.5C321.448 640.333 318.5 639.25 315.312 639.25C312.125 639.25 309.167 640.333 306.438 642.5C303.729 644.646 301.583 647.573 300 651.281C298.417 654.99 297.625 659.031 297.625 663.406C297.625 667.781 298.417 671.823 300 675.531C301.583 679.24 303.729 682.177 306.438 684.344ZM376.375 687.562C378.938 687.562 381.51 687.052 384.094 686.031C386.698 684.99 389 683.5 391 681.562C393.021 679.604 394.354 677.438 395 675.062L392.812 691H344.5C346.146 689.938 347.438 688.542 348.375 686.812C349.333 685.062 349.812 683.208 349.812 681.25V645.562C349.812 643.583 349.333 641.729 348.375 640C347.438 638.271 346.146 636.875 344.5 635.812H365.375C363.729 636.875 362.438 638.281 361.5 640.031C360.562 641.76 360.094 643.604 360.094 645.562V687.562H376.375ZM426.906 687.562C430.74 687.562 434.177 686.406 437.219 684.094C440.26 681.781 442.292 678.771 443.312 675.062L441.125 691H396.25C397.896 689.938 399.188 688.542 400.125 686.812C401.083 685.062 401.562 683.208 401.562 681.25V645.562C401.562 643.583 401.083 641.729 400.125 640C399.188 638.271 397.896 636.875 396.25 635.812H438.156V655.812L438 655.25C437.896 654.875 437.75 654.333 437.562 653.625C437 651.521 436.562 649.969 436.25 648.969C435.938 647.948 435.438 646.688 434.75 645.188C434.083 643.688 433.365 642.594 432.594 641.906C431.844 641.219 430.833 640.604 429.562 640.062C428.312 639.521 426.854 639.25 425.188 639.25H411.844V661.156H421.906C424.115 661.156 426.167 660.594 428.062 659.469C429.979 658.323 431.469 656.771 432.531 654.812V670.938C431.469 668.979 429.979 667.438 428.062 666.312C426.167 665.167 424.115 664.594 421.906 664.594H411.844V687.562H426.906ZM506.438 662.906L509.719 666.188L506.344 669.562C506.219 676.479 505.969 682.104 505.594 686.438C505.177 681.812 504.917 676.188 504.812 669.562L501.438 666.188L504.719 662.906V662.812L501.438 659.531L504.844 656.125C504.948 649.729 505.188 644.49 505.562 640.406C505.958 644.781 506.208 650.021 506.312 656.125L509.688 659.531L506.438 662.812V662.906ZM542.781 673.531C547.01 673.99 550.823 673.167 554.219 671.062C553.448 673.188 551.979 674.979 549.812 676.438C547.771 677.75 545.51 678.583 543.031 678.938C539.531 679.417 535.042 679.146 529.562 678.125L527.688 677.75V697.938C527.688 701.375 528.552 704.573 530.281 707.531C532.031 710.51 534.406 712.833 537.406 714.5C533.781 714.5 530.427 713.604 527.344 711.812C524.281 710.021 521.854 707.583 520.062 704.5C518.292 701.438 517.406 698.094 517.406 694.469V676.188C516.26 676.188 515.229 676.302 514.312 676.531L514.25 695.656C514.25 698.573 514.292 700.427 514.375 701.219C514.583 702.885 515.052 704.625 515.781 706.438C517.26 709.771 519.635 712.49 522.906 714.594C526.177 716.698 529.708 717.812 533.5 717.938C529.5 718.042 525.833 717.167 522.5 715.312C519 713.312 516.365 710.542 514.594 707C513.635 705.021 513.062 703.156 512.875 701.406C512.812 700.74 512.75 698.823 512.688 695.656L512.656 677.125C511.323 677.771 509.823 679.104 508.156 681.125C508.198 678.604 508.99 676.406 510.531 674.531C511.052 673.927 511.75 673.344 512.625 672.781V666.219L512.812 649.5L512.938 643.812C512.938 643.5 512.938 643.042 512.938 642.438C512.958 641.812 512.969 641.323 512.969 640.969C512.969 640.594 512.958 640.156 512.938 639.656C512.917 639.135 512.865 638.667 512.781 638.25C512.51 636.438 511.865 634.729 510.844 633.125C509.844 631.5 508.573 630.135 507.031 629.031C508.656 630.052 510.052 631.354 511.219 632.938C512.385 634.5 513.188 636.219 513.625 638.094C513.75 638.677 513.833 639.26 513.875 639.844C513.938 640.427 513.969 641.188 513.969 642.125C513.99 643.042 514 643.604 514 643.812L514.125 649.469L514.312 666.219V671.812C515.312 671.333 516.271 671.01 517.188 670.844C517.208 670.844 517.24 670.844 517.281 670.844C517.323 670.823 517.354 670.812 517.375 670.812V635.125C517.375 632.646 516.812 630.292 515.688 628.062C514.562 625.833 512.99 623.99 510.969 622.531C513.24 622.531 515.406 622.979 517.469 623.875C519.531 624.75 521.302 625.938 522.781 627.438C524.281 628.917 525.469 630.688 526.344 632.75C527.24 634.812 527.688 636.979 527.688 639.25V670.875C528.396 670.979 529.438 671.156 530.812 671.406C531.583 671.552 532.854 671.812 534.625 672.188C536.417 672.542 537.938 672.833 539.188 673.062C540.438 673.271 541.635 673.427 542.781 673.531ZM561.656 614.969C563.74 615.052 565.521 615.417 567 616.062C568.479 616.708 569.552 617.531 570.219 618.531C570.906 619.51 571.302 620.615 571.406 621.844C571.531 623.073 571.354 624.302 570.875 625.531C570.417 626.74 569.688 627.917 568.688 629.062C567.688 630.208 566.5 631.177 565.125 631.969C565.521 631.031 565.781 629.969 565.906 628.781C566.031 627.594 566 626.417 565.812 625.25C565.646 624.062 565.188 623.01 564.438 622.094C563.708 621.156 562.74 620.542 561.531 620.25C561.115 620.146 560.458 620.062 559.562 620C558.688 619.917 557.625 619.844 556.375 619.781C555.125 619.719 553.875 619.667 552.625 619.625C551.375 619.583 549.958 619.552 548.375 619.531C546.812 619.51 545.5 619.5 544.438 619.5C543.375 619.479 542.167 619.458 540.812 619.438C539.458 619.417 538.594 619.406 538.219 619.406C528.115 619.26 518 619.26 507.875 619.406L507.844 619.375C507.823 619.375 507.802 619.375 507.781 619.375C506.948 619.646 506.49 619.802 506.406 619.844C502.927 621.365 500.281 623.75 498.469 627C496.594 630.292 495.844 633.792 496.219 637.5C496.365 639.438 497 641.177 498.125 642.719C499.25 644.24 500.75 645.125 502.625 645.375C500.75 645.521 499.01 644.76 497.406 643.094C496.177 641.719 495.344 639.917 494.906 637.688C494.156 633.792 494.844 629.948 496.969 626.156C498.573 623.302 500.896 621.094 503.938 619.531C501.188 620.406 498.844 621.677 496.906 623.344C494.969 624.99 493.552 626.781 492.656 628.719C491.781 630.635 491.198 632.667 490.906 634.812C490.615 636.938 490.656 638.927 491.031 640.781C491.406 642.635 491.99 644.292 492.781 645.75C493.573 647.188 494.51 648.229 495.594 648.875C494.531 648.604 493.354 648.219 492.062 647.719C490.771 647.198 489.365 646.521 487.844 645.688C486.323 644.833 484.885 643.885 483.531 642.844C482.177 641.802 480.958 640.583 479.875 639.188C478.792 637.771 477.979 636.302 477.438 634.781C476.917 633.24 476.781 631.51 477.031 629.594C477.281 627.656 477.99 625.688 479.156 623.688C479.844 622.521 480.729 621.49 481.812 620.594C482.896 619.677 484.073 618.927 485.344 618.344C486.615 617.74 488.042 617.229 489.625 616.812C491.229 616.396 492.802 616.083 494.344 615.875C495.885 615.646 497.562 615.479 499.375 615.375C501.188 615.271 502.854 615.208 504.375 615.188C505.896 615.146 507.521 615.115 509.25 615.094C509.75 615.094 510.125 615.094 510.375 615.094C511.417 615.094 516.438 615.021 525.438 614.875C534.458 614.708 541.083 614.625 545.312 614.625C550.542 614.625 555.99 614.74 561.656 614.969ZM574.406 645.562V681.25C574.406 683.229 574.875 685.083 575.812 686.812C576.75 688.542 578.042 689.938 579.688 691H558.812C560.458 689.938 561.75 688.542 562.688 686.812C563.646 685.062 564.125 683.208 564.125 681.25V645.562C564.125 643.583 563.646 641.729 562.688 640C561.75 638.271 560.458 636.875 558.812 635.812H579.688C578.042 636.875 576.75 638.281 575.812 640.031C574.875 641.76 574.406 643.604 574.406 645.562ZM636 635.875C633.375 636.917 631.26 638.604 629.656 640.938C628.073 643.25 627.281 645.823 627.281 648.656V678.188C627.281 681.021 628.073 683.604 629.656 685.938C631.26 688.271 633.375 689.958 636 691H617.156L593.219 639.281H593.094V678.188C593.094 681.021 593.885 683.604 595.469 685.938C597.073 688.271 599.188 689.958 601.812 691H580.938C583.562 689.958 585.667 688.271 587.25 685.938C588.854 683.604 589.656 681.021 589.656 678.188V648.656C589.656 645.823 588.854 643.25 587.25 640.938C585.667 638.604 583.562 636.917 580.938 635.875L601.688 635.812V635.875L623.844 684.219V648.656C623.844 645.823 623.042 643.25 621.438 640.938C619.854 638.604 617.75 636.917 615.125 635.875H636ZM672.719 635.812L691.219 681.625C692.844 685.625 695.438 688.75 699 691H678.125C679.646 690 680.667 688.635 681.188 686.906C681.729 685.177 681.667 683.479 681 681.812L679.844 679H652.562C651.604 681.333 651.635 683.667 652.656 686C653.698 688.312 655.396 689.927 657.75 690.844L658.125 691H637.25C639.938 689.917 642.302 688.344 644.344 686.281C646.406 684.198 647.99 681.812 649.094 679.125L664.5 640.969L662.406 635.812H672.719ZM653.969 675.594H678.469L666.219 645.219L653.969 675.594ZM755.375 635.875C752.75 636.917 750.635 638.604 749.031 640.938C747.448 643.25 746.656 645.823 746.656 648.656V678.188C746.656 681.021 747.448 683.604 749.031 685.938C750.635 688.271 752.75 689.958 755.375 691H736.531L712.594 639.281H712.469V678.188C712.469 681.021 713.26 683.604 714.844 685.938C716.448 688.271 718.562 689.958 721.188 691H700.312C702.938 689.958 705.042 688.271 706.625 685.938C708.229 683.604 709.031 681.021 709.031 678.188V648.656C709.031 645.823 708.229 643.25 706.625 640.938C705.042 638.604 702.938 636.917 700.312 635.875L721.062 635.812V635.875L743.219 684.219V648.656C743.219 645.823 742.417 643.25 740.812 640.938C739.229 638.604 737.125 636.917 734.5 635.875H755.375ZM803.344 639.25C804.281 639.479 805.094 639.531 805.781 639.406C806.469 639.26 807.042 639 807.5 638.625C807.979 638.229 808.354 637.833 808.625 637.438C808.917 637.021 809.125 636.656 809.25 636.344L809.406 635.875V656.719C809.365 656.448 809.281 656.094 809.156 655.656C809.052 655.219 808.75 654.365 808.25 653.094C807.75 651.802 807.146 650.583 806.438 649.438C805.75 648.271 804.74 647 803.406 645.625C802.094 644.25 800.615 643.094 798.969 642.156C797.344 641.198 795.281 640.438 792.781 639.875C790.281 639.292 787.562 639.083 784.625 639.25C782.208 639.396 779.917 640.115 777.75 641.406C775.583 642.698 773.708 644.406 772.125 646.531C770.542 648.656 769.281 651.188 768.344 654.125C767.406 657.042 766.938 660.135 766.938 663.406V663.438C766.938 667.771 767.74 671.729 769.344 675.312C770.948 678.896 773.083 681.75 775.75 683.875C778.438 686 781.396 687.25 784.625 687.625C787.083 687.917 789.469 687.875 791.781 687.5C794.094 687.125 796.135 686.521 797.906 685.688C799.677 684.854 801.302 683.844 802.781 682.656C804.26 681.469 805.479 680.229 806.438 678.938C807.417 677.625 808.167 676.302 808.688 674.969C807.896 677.531 806.896 679.781 805.688 681.719C804.479 683.635 803.135 685.208 801.656 686.438C800.198 687.646 798.542 688.615 796.688 689.344C794.833 690.073 792.927 690.562 790.969 690.812C789.031 691.042 786.917 691.104 784.625 691C780.833 690.812 777.219 689.979 773.781 688.5C770.365 687.021 767.396 685.083 764.875 682.688C762.375 680.292 760.385 677.427 758.906 674.094C757.427 670.76 756.677 667.229 756.656 663.5H756.625V663.469L756.656 663.438L756.625 663.406V663.375H756.656C756.677 659.646 757.427 656.115 758.906 652.781C760.385 649.427 762.375 646.542 764.875 644.125C767.396 641.708 770.365 639.771 773.781 638.312C777.219 636.833 780.833 636.021 784.625 635.875C786.854 635.792 788.99 635.875 791.031 636.125C793.094 636.354 794.688 636.625 795.812 636.938C796.958 637.25 798.344 637.677 799.969 638.219C801.615 638.74 802.74 639.083 803.344 639.25ZM841.344 687.562C845.177 687.562 848.615 686.406 851.656 684.094C854.698 681.781 856.729 678.771 857.75 675.062L855.562 691H810.688C812.333 689.938 813.625 688.542 814.562 686.812C815.521 685.062 816 683.208 816 681.25V645.562C816 643.583 815.521 641.729 814.562 640C813.625 638.271 812.333 636.875 810.688 635.812H852.594V655.812L852.438 655.25C852.333 654.875 852.188 654.333 852 653.625C851.438 651.521 851 649.969 850.688 648.969C850.375 647.948 849.875 646.688 849.188 645.188C848.521 643.688 847.802 642.594 847.031 641.906C846.281 641.219 845.271 640.604 844 640.062C842.75 639.521 841.292 639.25 839.625 639.25H826.281V661.156H836.344C838.552 661.156 840.604 660.594 842.5 659.469C844.417 658.323 845.906 656.771 846.969 654.812V670.938C845.906 668.979 844.417 667.438 842.5 666.312C840.604 665.167 838.552 664.594 836.344 664.594H826.281V687.562H841.344ZM874.594 645.562V681.25C874.594 683.229 875.062 685.083 876 686.812C876.938 688.542 878.229 689.938 879.875 691H859C860.646 689.938 861.938 688.542 862.875 686.812C863.833 685.062 864.312 683.208 864.312 681.25V645.562C864.312 643.583 863.833 641.729 862.875 640C861.938 638.271 860.646 636.875 859 635.812H879.875C878.229 636.875 876.938 638.281 876 640.031C875.062 641.76 874.594 643.604 874.594 645.562ZM932.094 687.281C932.615 687.177 932.771 687.344 932.562 687.781C932.458 688.031 932.302 688.271 932.094 688.5C931.24 689.479 930.208 690.208 929 690.688C927.104 691.396 925.552 691.792 924.344 691.875C922.052 692.042 920.208 691.333 918.812 689.75C917.438 688.167 916.531 686.146 916.094 683.688C915.844 682.312 915.677 680.24 915.594 677.469C915.531 674.698 915.375 672.625 915.125 671.25C914.771 669.354 914.094 667.625 913.094 666.062C912.698 665.458 912.271 664.969 911.812 664.594H896.719V681.281C896.719 683.26 897.188 685.115 898.125 686.844C899.062 688.552 900.354 689.938 902 691H881.125C882.771 689.938 884.062 688.542 885 686.812C885.958 685.083 886.438 683.24 886.438 681.281V645.562C886.438 643.583 885.958 641.729 885 640C884.062 638.271 882.771 636.875 881.125 635.812H913.344C917.302 635.812 920.688 637.219 923.5 640.031C926.312 642.844 927.719 646.24 927.719 650.219C927.719 652.823 927.062 655.219 925.75 657.406C924.458 659.573 922.719 661.292 920.531 662.562C921.281 663.146 921.865 663.875 922.281 664.75C922.823 665.896 923.177 667.802 923.344 670.469C923.385 671.198 923.438 672.312 923.5 673.812C923.562 675.292 923.615 676.406 923.656 677.156C923.885 681.156 924.573 683.948 925.719 685.531C926.156 686.135 926.604 686.604 927.062 686.938C927.542 687.25 928.073 687.448 928.656 687.531C929.24 687.594 929.771 687.604 930.25 687.562C930.729 687.521 931.344 687.427 932.094 687.281ZM896.719 661.156H906.469C909.594 661.156 912.24 660.021 914.406 657.75C916.573 655.479 917.573 652.771 917.406 649.625C917.302 647.688 916.698 645.927 915.594 644.344C914.51 642.74 913.104 641.49 911.375 640.594C909.646 639.698 907.802 639.25 905.844 639.25H896.719V661.156ZM951.062 638.062C954.521 636.604 958.146 635.875 961.938 635.875C965.729 635.875 969.344 636.604 972.781 638.062C976.24 639.521 979.219 641.49 981.719 643.969C984.219 646.427 986.208 649.365 987.688 652.781C989.167 656.177 989.906 659.74 989.906 663.469C989.906 667.198 989.167 670.771 987.688 674.188C986.208 677.604 984.219 680.552 981.719 683.031C979.219 685.49 976.24 687.448 972.781 688.906C969.344 690.365 965.729 691.094 961.938 691.094C958.896 691.094 955.948 690.635 953.094 689.719C950.26 688.781 947.698 687.458 945.406 685.75C943.115 684.042 941.104 682.052 939.375 679.781C937.646 677.51 936.302 674.979 935.344 672.188C934.406 669.375 933.938 666.469 933.938 663.469C933.938 659.74 934.677 656.177 936.156 652.781C937.635 649.365 939.625 646.427 942.125 643.969C944.625 641.49 947.604 639.521 951.062 638.062ZM953.062 684.344C955.792 686.49 958.75 687.562 961.938 687.562C965.125 687.562 968.073 686.49 970.781 684.344C973.51 682.177 975.667 679.24 977.25 675.531C978.833 671.823 979.625 667.781 979.625 663.406C979.625 659.031 978.833 654.99 977.25 651.281C975.667 647.573 973.51 644.646 970.781 642.5C968.073 640.333 965.125 639.25 961.938 639.25C958.75 639.25 955.792 640.333 953.062 642.5C950.354 644.646 948.208 647.573 946.625 651.281C945.042 654.99 944.25 659.031 944.25 663.406C944.25 667.781 945.042 671.823 946.625 675.531C948.208 679.24 950.354 682.177 953.062 684.344Z" fill="white"/>
</svg>
