<?xml version="1.0" encoding="UTF-8"?>
<!DOCTYPE svg PUBLIC "-//W3C//DTD SVG 1.1//EN" "http://www.w3.org/Graphics/SVG/1.1/DTD/svg11.dtd">
<!-- Creator: CorelDRAW 2021.5 -->
<svg xmlns="http://www.w3.org/2000/svg" xml:space="preserve" width="1.33333in" height="1.33333in" version="1.1" style="shape-rendering:geometricPrecision; text-rendering:geometricPrecision; image-rendering:optimizeQuality; fill-rule:evenodd; clip-rule:evenodd"
viewBox="0 0 1333.33 1333.33"
 xmlns:xlink="http://www.w3.org/1999/xlink"
 xmlns:xodm="http://www.corel.com/coreldraw/odm/2003">
 <defs>
  <style type="text/css">
   <![CDATA[
    .fil0 {fill:white;fill-rule:nonzero}
   ]]>
  </style>
 </defs>
 <g id="Camada_x0020_1">
  <metadata id="CorelCorpID_0Corel-Layer"/>
  <path id="_8665104_chess_knight_icon.svg" class="fil0" d="M418.89 667.37l58.18 25.5c5.96,2.55 12.36,3.97 18.76,3.97 5.73,0 11.46,-1.07 16.87,-3.24l18.26 -7.26c13.07,-5.14 22.91,-15.76 26.85,-29.04l13.18 -43.33c2.58,-9.78 9.02,-17.85 18.19,-22.24l31.65 -15.72 0 71.37c0,25.67 -14.9,49.19 -38.1,60.66l-81.85 40.66c-38.86,19.27 -63.38,58.37 -63.38,101.43l0 20.54 458.18 0 -0.06 -272c0,-148.89 -122.93,-272 -274.7,-272l-212.06 0c-9.49,0 -17.19,7.62 -17.19,17 0,3.72 0.89,7.44 2.51,10.8l20.41 40.2 -12.89 12.75c-6.45,6.37 -10.03,15.04 -10.03,24.08l0 194.37c0,17.99 10.74,34.28 27.21,41.51zm47.26 -204.71c15.76,0 28.65,12.75 28.65,28.33 0,15.58 -12.89,28.33 -28.65,28.33 -15.76,0 -28.65,-12.75 -28.65,-28.33 0,-15.58 12.89,-28.33 28.65,-28.33zm406.76 453.33l-413.78 0c-36.68,0 -67.46,30.46 -67.46,66.73 0,13.74 10.26,23.94 22.92,23.94l504.15 0c12.66,0 22.92,-10.15 22.92,-22.67 0,-37.54 -30.79,-68 -68.75,-68z"/>
 </g>
</svg>
