<?xml version="1.0" encoding="UTF-8"?>
<!DOCTYPE svg PUBLIC "-//W3C//DTD SVG 1.1//EN" "http://www.w3.org/Graphics/SVG/1.1/DTD/svg11.dtd">
<!-- Creator: CorelDRAW 2021.5 -->
<svg xmlns="http://www.w3.org/2000/svg" xml:space="preserve" width="1.33333in" height="1.33333in" version="1.1" style="shape-rendering:geometricPrecision; text-rendering:geometricPrecision; image-rendering:optimizeQuality; fill-rule:evenodd; clip-rule:evenodd"
viewBox="0 0 1333.33 1333.33"
 xmlns:xlink="http://www.w3.org/1999/xlink"
 xmlns:xodm="http://www.corel.com/coreldraw/odm/2003">
 <defs>
  <style type="text/css">
   <![CDATA[
    .fil0 {fill:white;fill-rule:nonzero}
   ]]>
  </style>
 </defs>
 <g id="Camada_x0020_1">
  <metadata id="CorelCorpID_0Corel-Layer"/>
  <path id="_8665104_chess_knight_icon.svg" class="fil0" d="M507.55 667.12l37.36 16.37c3.82,1.64 7.94,2.55 12.05,2.55 3.68,0 7.36,-0.69 10.83,-2.08l11.72 -4.66c8.39,-3.3 14.72,-10.12 17.25,-18.65l8.46 -27.83c1.65,-6.28 5.8,-11.46 11.68,-14.28l20.32 -10.1 0 45.83c0,16.48 -9.56,31.59 -24.46,38.95l-52.56 26.11c-24.95,12.37 -40.7,37.48 -40.7,65.13l0 13.19 294.22 0 -0.04 -174.67c0,-95.61 -78.94,-174.67 -176.41,-174.67l-136.17 0c-6.09,0 -11.04,4.89 -11.04,10.92 0,2.39 0.57,4.78 1.61,6.93l13.1 25.81 -8.28 8.19c-4.14,4.09 -6.44,9.66 -6.44,15.46l0 124.81c0,11.56 6.9,22.02 17.47,26.66zm30.35 -131.46c10.12,0 18.4,8.19 18.4,18.2 0,10 -8.28,18.19 -18.4,18.19 -10.11,0 -18.39,-8.19 -18.39,-18.19 0,-10.01 8.28,-18.2 18.39,-18.2zm261.2 291.11l-265.71 0c-23.56,0 -43.32,19.56 -43.32,42.85 0,8.83 6.59,15.37 14.71,15.37l323.75 0c8.13,0 14.71,-6.52 14.71,-14.56 0,-24.11 -19.77,-43.67 -44.15,-43.67z"/>
 </g>
</svg>
